<?xml version="1.0" encoding="UTF-8"?><svg xmlns="http://www.w3.org/2000/svg" xmlns:xlink="http://www.w3.org/1999/xlink" stroke-dasharray="none" shape-rendering="auto" font-family="'Dialog'" width="1047" text-rendering="auto" fill-opacity="1" contentScriptType="text/ecmascript" color-interpolation="auto" color-rendering="auto" preserveAspectRatio="xMidYMid meet" font-size="12" fill="black" stroke="black" image-rendering="auto" stroke-miterlimit="10" zoomAndPan="magnify" version="1.0" stroke-linecap="square" stroke-linejoin="miter" contentStyleType="text/css" font-style="normal" height="356" stroke-width="1" stroke-dashoffset="0" font-weight="normal" stroke-opacity="1">
<!--Generated by the Batik Graphics2D SVG Generator-->
<defs id="genericDefs"/>
<g>
<defs id="defs1">
<clipPath clipPathUnits="userSpaceOnUse" id="clipPath1">
<path d="M28 23 L1019 23 L1019 333 L28 333 L28 23 Z"/>
</clipPath>
<clipPath clipPathUnits="userSpaceOnUse" id="clipPath2">
<path d="M-1 -1 L1048 -1 L1048 357 L-1 357 L-1 -1 Z"/>
</clipPath>
</defs>
<g fill="white" text-rendering="geometricPrecision" font-family="'Segoe UI'" stroke-linejoin="round" stroke="white" stroke-width="0" stroke-miterlimit="0">
<rect x="29" y="24" clip-path="url(#clipPath1)" width="989" height="308" stroke="none"/>
</g>
<g stroke-linecap="butt" fill="rgb(204,204,204)" text-rendering="geometricPrecision" font-family="'Segoe UI'" stroke-dasharray="3,3" stroke="rgb(204,204,204)">
<line clip-path="url(#clipPath1)" fill="none" x1="29" x2="29" y1="24" y2="332"/>
<line clip-path="url(#clipPath1)" fill="none" x1="94" x2="94" y1="24" y2="332"/>
<line clip-path="url(#clipPath1)" fill="none" x1="160" x2="160" y1="24" y2="332"/>
<line clip-path="url(#clipPath1)" fill="none" x1="226" x2="226" y1="24" y2="332"/>
<line clip-path="url(#clipPath1)" fill="none" x1="292" x2="292" y1="24" y2="332"/>
<line clip-path="url(#clipPath1)" fill="none" x1="358" x2="358" y1="24" y2="332"/>
<line clip-path="url(#clipPath1)" fill="none" x1="424" x2="424" y1="24" y2="332"/>
<line clip-path="url(#clipPath1)" fill="none" x1="490" x2="490" y1="24" y2="332"/>
<line clip-path="url(#clipPath1)" fill="none" x1="556" x2="556" y1="24" y2="332"/>
<line clip-path="url(#clipPath1)" fill="none" x1="622" x2="622" y1="24" y2="332"/>
<line clip-path="url(#clipPath1)" fill="none" x1="688" x2="688" y1="24" y2="332"/>
<line clip-path="url(#clipPath1)" fill="none" x1="754" x2="754" y1="24" y2="332"/>
<line clip-path="url(#clipPath1)" fill="none" x1="820" x2="820" y1="24" y2="332"/>
<line clip-path="url(#clipPath1)" fill="none" x1="886" x2="886" y1="24" y2="332"/>
<line clip-path="url(#clipPath1)" fill="none" x1="952" x2="952" y1="24" y2="332"/>
<line clip-path="url(#clipPath1)" fill="none" x1="1018" x2="1018" y1="24" y2="332"/>
<line clip-path="url(#clipPath1)" fill="none" x1="29" x2="1018" y1="332" y2="332"/>
<line clip-path="url(#clipPath1)" fill="none" x1="29" x2="1018" y1="270" y2="270"/>
<line clip-path="url(#clipPath1)" fill="none" x1="29" x2="1018" y1="208" y2="208"/>
<line clip-path="url(#clipPath1)" fill="none" x1="29" x2="1018" y1="147" y2="147"/>
<line clip-path="url(#clipPath1)" fill="none" x1="29" x2="1018" y1="85" y2="85"/>
<rect x="28" y="313" clip-path="url(#clipPath1)" fill="rgb(0,0,139)" width="5" height="5" stroke="none"/>
<line clip-path="url(#clipPath1)" fill="none" x1="30" x2="56" y1="315" y2="316" stroke-dasharray="none" stroke="rgb(0,0,139)"/>
<rect x="54" y="314" clip-path="url(#clipPath1)" fill="rgb(0,0,139)" width="5" stroke-dasharray="none" height="5" stroke="none"/>
<line clip-path="url(#clipPath1)" fill="none" x1="56" x2="83" y1="316" y2="317" stroke-dasharray="none" stroke="rgb(0,0,139)"/>
<rect x="81" y="315" clip-path="url(#clipPath1)" fill="rgb(0,0,139)" width="5" stroke-dasharray="none" height="5" stroke="none"/>
<line clip-path="url(#clipPath1)" fill="none" x1="83" x2="90" y1="317" y2="302" stroke-dasharray="none" stroke="rgb(0,0,139)"/>
<rect x="88" y="300" clip-path="url(#clipPath1)" fill="rgb(0,0,139)" width="5" stroke-dasharray="none" height="5" stroke="none"/>
<line clip-path="url(#clipPath1)" fill="none" x1="90" x2="109" y1="302" y2="303" stroke-dasharray="none" stroke="rgb(0,0,139)"/>
<rect x="107" y="301" clip-path="url(#clipPath1)" fill="rgb(0,0,139)" width="5" stroke-dasharray="none" height="5" stroke="none"/>
<line clip-path="url(#clipPath1)" fill="none" x1="109" x2="113" y1="303" y2="302" stroke-dasharray="none" stroke="rgb(0,0,139)"/>
<rect x="111" y="300" clip-path="url(#clipPath1)" fill="rgb(0,0,139)" width="5" stroke-dasharray="none" height="5" stroke="none"/>
<line clip-path="url(#clipPath1)" fill="none" x1="113" x2="135" y1="302" y2="303" stroke-dasharray="none" stroke="rgb(0,0,139)"/>
<rect x="133" y="301" clip-path="url(#clipPath1)" fill="rgb(0,0,139)" width="5" stroke-dasharray="none" height="5" stroke="none"/>
<line clip-path="url(#clipPath1)" fill="none" x1="135" x2="162" y1="303" y2="305" stroke-dasharray="none" stroke="rgb(0,0,139)"/>
<rect x="160" y="303" clip-path="url(#clipPath1)" fill="rgb(0,0,139)" width="5" stroke-dasharray="none" height="5" stroke="none"/>
<line clip-path="url(#clipPath1)" fill="none" x1="162" x2="188" y1="305" y2="306" stroke-dasharray="none" stroke="rgb(0,0,139)"/>
<rect x="186" y="304" clip-path="url(#clipPath1)" fill="rgb(0,0,139)" width="5" stroke-dasharray="none" height="5" stroke="none"/>
<line clip-path="url(#clipPath1)" fill="none" x1="188" x2="214" y1="306" y2="307" stroke-dasharray="none" stroke="rgb(0,0,139)"/>
<rect x="212" y="305" clip-path="url(#clipPath1)" fill="rgb(0,0,139)" width="5" stroke-dasharray="none" height="5" stroke="none"/>
<line clip-path="url(#clipPath1)" fill="none" x1="214" x2="218" y1="307" y2="306" stroke-dasharray="none" stroke="rgb(0,0,139)"/>
<rect x="216" y="304" clip-path="url(#clipPath1)" fill="rgb(0,0,139)" width="5" stroke-dasharray="none" height="5" stroke="none"/>
<line clip-path="url(#clipPath1)" fill="none" x1="218" x2="241" y1="306" y2="307" stroke-dasharray="none" stroke="rgb(0,0,139)"/>
<rect x="239" y="305" clip-path="url(#clipPath1)" fill="rgb(0,0,139)" width="5" stroke-dasharray="none" height="5" stroke="none"/>
<line clip-path="url(#clipPath1)" fill="none" x1="241" x2="267" y1="307" y2="308" stroke-dasharray="none" stroke="rgb(0,0,139)"/>
<rect x="265" y="306" clip-path="url(#clipPath1)" fill="rgb(0,0,139)" width="5" stroke-dasharray="none" height="5" stroke="none"/>
<line clip-path="url(#clipPath1)" fill="none" x1="267" x2="294" y1="308" y2="309" stroke-dasharray="none" stroke="rgb(0,0,139)"/>
<rect x="292" y="307" clip-path="url(#clipPath1)" fill="rgb(0,0,139)" width="5" stroke-dasharray="none" height="5" stroke="none"/>
<line clip-path="url(#clipPath1)" fill="none" x1="294" x2="295" y1="309" y2="297" stroke-dasharray="none" stroke="rgb(0,0,139)"/>
<rect x="293" y="295" clip-path="url(#clipPath1)" fill="rgb(0,0,139)" width="5" stroke-dasharray="none" height="5" stroke="none"/>
<line clip-path="url(#clipPath1)" fill="none" x1="295" x2="320" y1="297" y2="298" stroke-dasharray="none" stroke="rgb(0,0,139)"/>
<rect x="318" y="296" clip-path="url(#clipPath1)" fill="rgb(0,0,139)" width="5" stroke-dasharray="none" height="5" stroke="none"/>
<line clip-path="url(#clipPath1)" fill="none" x1="320" x2="328" y1="298" y2="288" stroke-dasharray="none" stroke="rgb(0,0,139)"/>
<rect x="326" y="286" clip-path="url(#clipPath1)" fill="rgb(0,0,139)" width="5" stroke-dasharray="none" height="5" stroke="none"/>
<line clip-path="url(#clipPath1)" fill="none" x1="328" x2="346" y1="288" y2="289" stroke-dasharray="none" stroke="rgb(0,0,139)"/>
<rect x="344" y="287" clip-path="url(#clipPath1)" fill="rgb(0,0,139)" width="5" stroke-dasharray="none" height="5" stroke="none"/>
<line clip-path="url(#clipPath1)" fill="none" x1="346" x2="373" y1="289" y2="290" stroke-dasharray="none" stroke="rgb(0,0,139)"/>
<rect x="371" y="288" clip-path="url(#clipPath1)" fill="rgb(0,0,139)" width="5" stroke-dasharray="none" height="5" stroke="none"/>
<line clip-path="url(#clipPath1)" fill="none" x1="373" x2="380" y1="290" y2="280" stroke-dasharray="none" stroke="rgb(0,0,139)"/>
<rect x="378" y="278" clip-path="url(#clipPath1)" fill="rgb(0,0,139)" width="5" stroke-dasharray="none" height="5" stroke="none"/>
<line clip-path="url(#clipPath1)" fill="none" x1="380" x2="387" y1="280" y2="270" stroke-dasharray="none" stroke="rgb(0,0,139)"/>
<rect x="385" y="268" clip-path="url(#clipPath1)" fill="rgb(0,0,139)" width="5" stroke-dasharray="none" height="5" stroke="none"/>
<line clip-path="url(#clipPath1)" fill="none" x1="387" x2="399" y1="270" y2="272" stroke-dasharray="none" stroke="rgb(0,0,139)"/>
<rect x="397" y="270" clip-path="url(#clipPath1)" fill="rgb(0,0,139)" width="5" stroke-dasharray="none" height="5" stroke="none"/>
<line clip-path="url(#clipPath1)" fill="none" x1="399" x2="407" y1="272" y2="262" stroke-dasharray="none" stroke="rgb(0,0,139)"/>
<rect x="405" y="260" clip-path="url(#clipPath1)" fill="rgb(0,0,139)" width="5" stroke-dasharray="none" height="5" stroke="none"/>
<line clip-path="url(#clipPath1)" fill="none" x1="407" x2="425" y1="262" y2="264" stroke-dasharray="none" stroke="rgb(0,0,139)"/>
<rect x="423" y="262" clip-path="url(#clipPath1)" fill="rgb(0,0,139)" width="5" stroke-dasharray="none" height="5" stroke="none"/>
<line clip-path="url(#clipPath1)" fill="none" x1="425" x2="452" y1="264" y2="266" stroke-dasharray="none" stroke="rgb(0,0,139)"/>
<rect x="450" y="264" clip-path="url(#clipPath1)" fill="rgb(0,0,139)" width="5" stroke-dasharray="none" height="5" stroke="none"/>
<line clip-path="url(#clipPath1)" fill="none" x1="452" x2="478" y1="266" y2="268" stroke-dasharray="none" stroke="rgb(0,0,139)"/>
<rect x="476" y="266" clip-path="url(#clipPath1)" fill="rgb(0,0,139)" width="5" stroke-dasharray="none" height="5" stroke="none"/>
<line clip-path="url(#clipPath1)" fill="none" x1="478" x2="505" y1="268" y2="270" stroke-dasharray="none" stroke="rgb(0,0,139)"/>
<rect x="503" y="268" clip-path="url(#clipPath1)" fill="rgb(0,0,139)" width="5" stroke-dasharray="none" height="5" stroke="none"/>
<line clip-path="url(#clipPath1)" fill="none" x1="505" x2="531" y1="270" y2="272" stroke-dasharray="none" stroke="rgb(0,0,139)"/>
<rect x="529" y="270" clip-path="url(#clipPath1)" fill="rgb(0,0,139)" width="5" stroke-dasharray="none" height="5" stroke="none"/>
<line clip-path="url(#clipPath1)" fill="none" x1="531" x2="532" y1="272" y2="263" stroke-dasharray="none" stroke="rgb(0,0,139)"/>
<rect x="530" y="261" clip-path="url(#clipPath1)" fill="rgb(0,0,139)" width="5" stroke-dasharray="none" height="5" stroke="none"/>
<line clip-path="url(#clipPath1)" fill="none" x1="532" x2="557" y1="263" y2="265" stroke-dasharray="none" stroke="rgb(0,0,139)"/>
<rect x="555" y="263" clip-path="url(#clipPath1)" fill="rgb(0,0,139)" width="5" stroke-dasharray="none" height="5" stroke="none"/>
<line clip-path="url(#clipPath1)" fill="none" x1="557" x2="584" y1="265" y2="267" stroke-dasharray="none" stroke="rgb(0,0,139)"/>
<rect x="582" y="265" clip-path="url(#clipPath1)" fill="rgb(0,0,139)" width="5" stroke-dasharray="none" height="5" stroke="none"/>
<line clip-path="url(#clipPath1)" fill="none" x1="584" x2="610" y1="267" y2="268" stroke-dasharray="none" stroke="rgb(0,0,139)"/>
<rect x="608" y="266" clip-path="url(#clipPath1)" fill="rgb(0,0,139)" width="5" stroke-dasharray="none" height="5" stroke="none"/>
<line clip-path="url(#clipPath1)" fill="none" x1="610" x2="611" y1="268" y2="260" stroke-dasharray="none" stroke="rgb(0,0,139)"/>
<rect x="609" y="258" clip-path="url(#clipPath1)" fill="rgb(0,0,139)" width="5" stroke-dasharray="none" height="5" stroke="none"/>
<line clip-path="url(#clipPath1)" fill="none" x1="611" x2="631" y1="260" y2="253" stroke-dasharray="none" stroke="rgb(0,0,139)"/>
<rect x="629" y="251" clip-path="url(#clipPath1)" fill="rgb(0,0,139)" width="5" stroke-dasharray="none" height="5" stroke="none"/>
<line clip-path="url(#clipPath1)" fill="none" x1="631" x2="636" y1="253" y2="255" stroke-dasharray="none" stroke="rgb(0,0,139)"/>
<rect x="634" y="253" clip-path="url(#clipPath1)" fill="rgb(0,0,139)" width="5" stroke-dasharray="none" height="5" stroke="none"/>
<line clip-path="url(#clipPath1)" fill="none" x1="636" x2="638" y1="255" y2="247" stroke-dasharray="none" stroke="rgb(0,0,139)"/>
<rect x="636" y="245" clip-path="url(#clipPath1)" fill="rgb(0,0,139)" width="5" stroke-dasharray="none" height="5" stroke="none"/>
<line clip-path="url(#clipPath1)" fill="none" x1="638" x2="642" y1="247" y2="245" stroke-dasharray="none" stroke="rgb(0,0,139)"/>
<rect x="640" y="243" clip-path="url(#clipPath1)" fill="rgb(0,0,139)" width="5" stroke-dasharray="none" height="5" stroke="none"/>
<line clip-path="url(#clipPath1)" fill="none" x1="642" x2="688" y1="245" y2="247" stroke-dasharray="none" stroke="rgb(0,0,139)"/>
<rect x="686" y="245" clip-path="url(#clipPath1)" fill="rgb(0,0,139)" width="5" stroke-dasharray="none" height="5" stroke="none"/>
<line clip-path="url(#clipPath1)" fill="none" x1="688" x2="689" y1="247" y2="249" stroke-dasharray="none" stroke="rgb(0,0,139)"/>
<rect x="687" y="247" clip-path="url(#clipPath1)" fill="rgb(0,0,139)" width="5" stroke-dasharray="none" height="5" stroke="none"/>
<line clip-path="url(#clipPath1)" fill="none" x1="689" x2="716" y1="249" y2="251" stroke-dasharray="none" stroke="rgb(0,0,139)"/>
<rect x="714" y="249" clip-path="url(#clipPath1)" fill="rgb(0,0,139)" width="5" stroke-dasharray="none" height="5" stroke="none"/>
<line clip-path="url(#clipPath1)" fill="none" x1="716" x2="742" y1="251" y2="253" stroke-dasharray="none" stroke="rgb(0,0,139)"/>
<rect x="740" y="251" clip-path="url(#clipPath1)" fill="rgb(0,0,139)" width="5" stroke-dasharray="none" height="5" stroke="none"/>
<line clip-path="url(#clipPath1)" fill="none" x1="742" x2="743" y1="253" y2="246" stroke-dasharray="none" stroke="rgb(0,0,139)"/>
<rect x="741" y="244" clip-path="url(#clipPath1)" fill="rgb(0,0,139)" width="5" stroke-dasharray="none" height="5" stroke="none"/>
<line clip-path="url(#clipPath1)" fill="none" x1="743" x2="754" y1="246" y2="243" stroke-dasharray="none" stroke="rgb(0,0,139)"/>
<rect x="752" y="241" clip-path="url(#clipPath1)" fill="rgb(0,0,139)" width="5" stroke-dasharray="none" height="5" stroke="none"/>
<line clip-path="url(#clipPath1)" fill="none" x1="754" x2="768" y1="243" y2="246" stroke-dasharray="none" stroke="rgb(0,0,139)"/>
<rect x="766" y="244" clip-path="url(#clipPath1)" fill="rgb(0,0,139)" width="5" stroke-dasharray="none" height="5" stroke="none"/>
<line clip-path="url(#clipPath1)" fill="none" x1="768" x2="772" y1="246" y2="253" stroke-dasharray="none" stroke="rgb(0,0,139)"/>
<rect x="770" y="251" clip-path="url(#clipPath1)" fill="rgb(0,0,139)" width="5" stroke-dasharray="none" height="5" stroke="none"/>
</g>
<g stroke-linecap="butt" fill="rgb(0,0,139)" text-rendering="geometricPrecision" font-family="'Segoe UI'" shape-rendering="crispEdges" stroke="rgb(0,0,139)">
<line clip-path="url(#clipPath1)" fill="none" x1="772" x2="772" y1="253" y2="251"/>
<rect x="770" y="249" clip-path="url(#clipPath1)" width="5" shape-rendering="auto" height="5" stroke="none"/>
<line clip-path="url(#clipPath1)" fill="none" x1="772" x2="795" y1="251" y2="253" shape-rendering="auto"/>
<rect x="793" y="251" clip-path="url(#clipPath1)" width="5" shape-rendering="auto" height="5" stroke="none"/>
<line clip-path="url(#clipPath1)" fill="none" x1="795" x2="821" y1="253" y2="255" shape-rendering="auto"/>
<rect x="819" y="253" clip-path="url(#clipPath1)" width="5" shape-rendering="auto" height="5" stroke="none"/>
<line clip-path="url(#clipPath1)" fill="none" x1="821" x2="847" y1="255" y2="256" shape-rendering="auto"/>
<rect x="845" y="254" clip-path="url(#clipPath1)" width="5" shape-rendering="auto" height="5" stroke="none"/>
<line clip-path="url(#clipPath1)" fill="none" x1="847" x2="865" y1="256" y2="263" shape-rendering="auto"/>
<rect x="863" y="261" clip-path="url(#clipPath1)" width="5" shape-rendering="auto" height="5" stroke="none"/>
<line clip-path="url(#clipPath1)" fill="none" x1="865" x2="865" y1="263" y2="261"/>
<rect x="863" y="259" clip-path="url(#clipPath1)" width="5" shape-rendering="auto" height="5" stroke="none"/>
<line clip-path="url(#clipPath1)" fill="none" x1="865" x2="874" y1="261" y2="263" shape-rendering="auto"/>
<rect x="872" y="261" clip-path="url(#clipPath1)" width="5" shape-rendering="auto" height="5" stroke="none"/>
<line clip-path="url(#clipPath1)" fill="none" x1="874" x2="900" y1="263" y2="261" shape-rendering="auto"/>
<rect x="898" y="259" clip-path="url(#clipPath1)" width="5" shape-rendering="auto" height="5" stroke="none"/>
<line clip-path="url(#clipPath1)" fill="none" x1="900" x2="900" y1="261" y2="263"/>
<rect x="898" y="261" clip-path="url(#clipPath1)" width="5" shape-rendering="auto" height="5" stroke="none"/>
<line clip-path="url(#clipPath1)" fill="none" x1="900" x2="927" y1="263" y2="265" shape-rendering="auto"/>
<rect x="925" y="263" clip-path="url(#clipPath1)" width="5" shape-rendering="auto" height="5" stroke="none"/>
<line clip-path="url(#clipPath1)" fill="none" x1="927" x2="944" y1="265" y2="263" shape-rendering="auto"/>
<rect x="942" y="261" clip-path="url(#clipPath1)" width="5" shape-rendering="auto" height="5" stroke="none"/>
<line clip-path="url(#clipPath1)" fill="none" x1="944" x2="947" y1="263" y2="256" shape-rendering="auto"/>
<rect x="945" y="254" clip-path="url(#clipPath1)" width="5" shape-rendering="auto" height="5" stroke="none"/>
<line clip-path="url(#clipPath1)" fill="none" x1="947" x2="953" y1="256" y2="258" shape-rendering="auto"/>
<rect x="951" y="256" clip-path="url(#clipPath1)" width="5" shape-rendering="auto" height="5" stroke="none"/>
<line clip-path="url(#clipPath1)" fill="none" x1="953" x2="979" y1="258" y2="259" shape-rendering="auto"/>
<rect x="977" y="257" clip-path="url(#clipPath1)" width="5" shape-rendering="auto" height="5" stroke="none"/>
<line clip-path="url(#clipPath1)" fill="none" x1="979" x2="981" y1="259" y2="258" shape-rendering="auto"/>
<rect x="979" y="256" clip-path="url(#clipPath1)" width="5" shape-rendering="auto" height="5" stroke="none"/>
<line clip-path="url(#clipPath1)" fill="none" x1="981" x2="1006" y1="258" y2="259" shape-rendering="auto"/>
<rect x="1004" y="257" clip-path="url(#clipPath1)" width="5" shape-rendering="auto" height="5" stroke="none"/>
<line clip-path="url(#clipPath1)" fill="none" x1="1006" x2="1007" y1="259" y2="253" shape-rendering="auto"/>
<rect x="1005" y="251" clip-path="url(#clipPath1)" width="5" shape-rendering="auto" height="5" stroke="none"/>
<line clip-path="url(#clipPath1)" fill="none" x1="1007" x2="1018" y1="253" y2="259" shape-rendering="auto"/>
<rect x="1016" y="257" clip-path="url(#clipPath1)" width="5" shape-rendering="auto" height="5" stroke="none"/>
<line clip-path="url(#clipPath1)" fill="none" x1="1018" x2="1018" y1="259" y2="258"/>
<rect x="1016" y="256" clip-path="url(#clipPath1)" width="5" shape-rendering="auto" height="5" stroke="none"/>
<rect x="29" y="24" clip-path="url(#clipPath2)" fill="none" width="989" shape-rendering="auto" height="308" stroke="black"/>
</g>
<g text-rendering="geometricPrecision" font-size="13" font-family="'Arial'" stroke-linecap="butt">
<line clip-path="url(#clipPath2)" fill="none" x1="29" x2="1018" y1="22" y2="22"/>
<line clip-path="url(#clipPath2)" fill="none" x1="29" x2="1018" y1="334" y2="334"/>
<line clip-path="url(#clipPath2)" fill="none" x1="29" x2="29" y1="18" y2="22"/>
<line clip-path="url(#clipPath2)" fill="none" x1="29" x2="29" y1="338" y2="334"/>
<text x="25" font-size="11" y="14" clip-path="url(#clipPath2)" stroke="none" xml:space="preserve">40</text>
<text x="25" font-size="11" y="350" clip-path="url(#clipPath2)" stroke="none" xml:space="preserve">40</text>
<line clip-path="url(#clipPath2)" fill="none" x1="42" x2="42" y1="20" y2="22"/>
<line clip-path="url(#clipPath2)" fill="none" x1="42" x2="42" y1="336" y2="334"/>
<line clip-path="url(#clipPath2)" fill="none" x1="55" x2="55" y1="20" y2="22"/>
<line clip-path="url(#clipPath2)" fill="none" x1="55" x2="55" y1="336" y2="334"/>
<line clip-path="url(#clipPath2)" fill="none" x1="68" x2="68" y1="20" y2="22"/>
<line clip-path="url(#clipPath2)" fill="none" x1="68" x2="68" y1="336" y2="334"/>
<line clip-path="url(#clipPath2)" fill="none" x1="81" x2="81" y1="20" y2="22"/>
<line clip-path="url(#clipPath2)" fill="none" x1="81" x2="81" y1="336" y2="334"/>
<line clip-path="url(#clipPath2)" fill="none" x1="94" x2="94" y1="18" y2="22"/>
<line clip-path="url(#clipPath2)" fill="none" x1="94" x2="94" y1="338" y2="334"/>
<text x="90" font-size="11" y="14" clip-path="url(#clipPath2)" stroke="none" xml:space="preserve">45</text>
<text x="90" font-size="11" y="350" clip-path="url(#clipPath2)" stroke="none" xml:space="preserve">45</text>
<line clip-path="url(#clipPath2)" fill="none" x1="108" x2="108" y1="20" y2="22"/>
<line clip-path="url(#clipPath2)" fill="none" x1="108" x2="108" y1="336" y2="334"/>
<line clip-path="url(#clipPath2)" fill="none" x1="121" x2="121" y1="20" y2="22"/>
<line clip-path="url(#clipPath2)" fill="none" x1="121" x2="121" y1="336" y2="334"/>
<line clip-path="url(#clipPath2)" fill="none" x1="134" x2="134" y1="20" y2="22"/>
<line clip-path="url(#clipPath2)" fill="none" x1="134" x2="134" y1="336" y2="334"/>
<line clip-path="url(#clipPath2)" fill="none" x1="147" x2="147" y1="20" y2="22"/>
<line clip-path="url(#clipPath2)" fill="none" x1="147" x2="147" y1="336" y2="334"/>
<line clip-path="url(#clipPath2)" fill="none" x1="160" x2="160" y1="18" y2="22"/>
<line clip-path="url(#clipPath2)" fill="none" x1="160" x2="160" y1="338" y2="334"/>
<text x="156" font-size="11" y="14" clip-path="url(#clipPath2)" stroke="none" xml:space="preserve">50</text>
<text x="156" font-size="11" y="350" clip-path="url(#clipPath2)" stroke="none" xml:space="preserve">50</text>
<line clip-path="url(#clipPath2)" fill="none" x1="174" x2="174" y1="20" y2="22"/>
<line clip-path="url(#clipPath2)" fill="none" x1="174" x2="174" y1="336" y2="334"/>
<line clip-path="url(#clipPath2)" fill="none" x1="187" x2="187" y1="20" y2="22"/>
<line clip-path="url(#clipPath2)" fill="none" x1="187" x2="187" y1="336" y2="334"/>
<line clip-path="url(#clipPath2)" fill="none" x1="200" x2="200" y1="20" y2="22"/>
<line clip-path="url(#clipPath2)" fill="none" x1="200" x2="200" y1="336" y2="334"/>
<line clip-path="url(#clipPath2)" fill="none" x1="213" x2="213" y1="20" y2="22"/>
<line clip-path="url(#clipPath2)" fill="none" x1="213" x2="213" y1="336" y2="334"/>
<line clip-path="url(#clipPath2)" fill="none" x1="226" x2="226" y1="18" y2="22"/>
<line clip-path="url(#clipPath2)" fill="none" x1="226" x2="226" y1="338" y2="334"/>
<text x="222" font-size="11" y="14" clip-path="url(#clipPath2)" stroke="none" xml:space="preserve">55</text>
<text x="222" font-size="11" y="350" clip-path="url(#clipPath2)" stroke="none" xml:space="preserve">55</text>
<line clip-path="url(#clipPath2)" fill="none" x1="239" x2="239" y1="20" y2="22"/>
<line clip-path="url(#clipPath2)" fill="none" x1="239" x2="239" y1="336" y2="334"/>
<line clip-path="url(#clipPath2)" fill="none" x1="253" x2="253" y1="20" y2="22"/>
<line clip-path="url(#clipPath2)" fill="none" x1="253" x2="253" y1="336" y2="334"/>
<line clip-path="url(#clipPath2)" fill="none" x1="266" x2="266" y1="20" y2="22"/>
<line clip-path="url(#clipPath2)" fill="none" x1="266" x2="266" y1="336" y2="334"/>
<line clip-path="url(#clipPath2)" fill="none" x1="279" x2="279" y1="20" y2="22"/>
<line clip-path="url(#clipPath2)" fill="none" x1="279" x2="279" y1="336" y2="334"/>
<line clip-path="url(#clipPath2)" fill="none" x1="292" x2="292" y1="18" y2="22"/>
<line clip-path="url(#clipPath2)" fill="none" x1="292" x2="292" y1="338" y2="334"/>
<text x="288" font-size="11" y="14" clip-path="url(#clipPath2)" stroke="none" xml:space="preserve">60</text>
<text x="288" font-size="11" y="350" clip-path="url(#clipPath2)" stroke="none" xml:space="preserve">60</text>
<line clip-path="url(#clipPath2)" fill="none" x1="305" x2="305" y1="20" y2="22"/>
<line clip-path="url(#clipPath2)" fill="none" x1="305" x2="305" y1="336" y2="334"/>
<line clip-path="url(#clipPath2)" fill="none" x1="319" x2="319" y1="20" y2="22"/>
<line clip-path="url(#clipPath2)" fill="none" x1="319" x2="319" y1="336" y2="334"/>
<line clip-path="url(#clipPath2)" fill="none" x1="332" x2="332" y1="20" y2="22"/>
<line clip-path="url(#clipPath2)" fill="none" x1="332" x2="332" y1="336" y2="334"/>
<line clip-path="url(#clipPath2)" fill="none" x1="345" x2="345" y1="20" y2="22"/>
<line clip-path="url(#clipPath2)" fill="none" x1="345" x2="345" y1="336" y2="334"/>
<line clip-path="url(#clipPath2)" fill="none" x1="358" x2="358" y1="18" y2="22"/>
<line clip-path="url(#clipPath2)" fill="none" x1="358" x2="358" y1="338" y2="334"/>
<text x="354" font-size="11" y="14" clip-path="url(#clipPath2)" stroke="none" xml:space="preserve">65</text>
<text x="354" font-size="11" y="350" clip-path="url(#clipPath2)" stroke="none" xml:space="preserve">65</text>
<line clip-path="url(#clipPath2)" fill="none" x1="371" x2="371" y1="20" y2="22"/>
<line clip-path="url(#clipPath2)" fill="none" x1="371" x2="371" y1="336" y2="334"/>
<line clip-path="url(#clipPath2)" fill="none" x1="385" x2="385" y1="20" y2="22"/>
<line clip-path="url(#clipPath2)" fill="none" x1="385" x2="385" y1="336" y2="334"/>
<line clip-path="url(#clipPath2)" fill="none" x1="398" x2="398" y1="20" y2="22"/>
<line clip-path="url(#clipPath2)" fill="none" x1="398" x2="398" y1="336" y2="334"/>
<line clip-path="url(#clipPath2)" fill="none" x1="411" x2="411" y1="20" y2="22"/>
<line clip-path="url(#clipPath2)" fill="none" x1="411" x2="411" y1="336" y2="334"/>
<line clip-path="url(#clipPath2)" fill="none" x1="424" x2="424" y1="18" y2="22"/>
<line clip-path="url(#clipPath2)" fill="none" x1="424" x2="424" y1="338" y2="334"/>
<text x="420" font-size="11" y="14" clip-path="url(#clipPath2)" stroke="none" xml:space="preserve">70</text>
<text x="420" font-size="11" y="350" clip-path="url(#clipPath2)" stroke="none" xml:space="preserve">70</text>
<line clip-path="url(#clipPath2)" fill="none" x1="437" x2="437" y1="20" y2="22"/>
<line clip-path="url(#clipPath2)" fill="none" x1="437" x2="437" y1="336" y2="334"/>
<line clip-path="url(#clipPath2)" fill="none" x1="450" x2="450" y1="20" y2="22"/>
<line clip-path="url(#clipPath2)" fill="none" x1="450" x2="450" y1="336" y2="334"/>
<line clip-path="url(#clipPath2)" fill="none" x1="464" x2="464" y1="20" y2="22"/>
<line clip-path="url(#clipPath2)" fill="none" x1="464" x2="464" y1="336" y2="334"/>
<line clip-path="url(#clipPath2)" fill="none" x1="477" x2="477" y1="20" y2="22"/>
<line clip-path="url(#clipPath2)" fill="none" x1="477" x2="477" y1="336" y2="334"/>
<line clip-path="url(#clipPath2)" fill="none" x1="490" x2="490" y1="18" y2="22"/>
<line clip-path="url(#clipPath2)" fill="none" x1="490" x2="490" y1="338" y2="334"/>
<text x="486" font-size="11" y="14" clip-path="url(#clipPath2)" stroke="none" xml:space="preserve">75</text>
<text x="486" font-size="11" y="350" clip-path="url(#clipPath2)" stroke="none" xml:space="preserve">75</text>
<line clip-path="url(#clipPath2)" fill="none" x1="503" x2="503" y1="20" y2="22"/>
<line clip-path="url(#clipPath2)" fill="none" x1="503" x2="503" y1="336" y2="334"/>
<line clip-path="url(#clipPath2)" fill="none" x1="516" x2="516" y1="20" y2="22"/>
<line clip-path="url(#clipPath2)" fill="none" x1="516" x2="516" y1="336" y2="334"/>
<line clip-path="url(#clipPath2)" fill="none" x1="530" x2="530" y1="20" y2="22"/>
<line clip-path="url(#clipPath2)" fill="none" x1="530" x2="530" y1="336" y2="334"/>
<line clip-path="url(#clipPath2)" fill="none" x1="543" x2="543" y1="20" y2="22"/>
<line clip-path="url(#clipPath2)" fill="none" x1="543" x2="543" y1="336" y2="334"/>
<line clip-path="url(#clipPath2)" fill="none" x1="556" x2="556" y1="18" y2="22"/>
<line clip-path="url(#clipPath2)" fill="none" x1="556" x2="556" y1="338" y2="334"/>
<text x="552" font-size="11" y="14" clip-path="url(#clipPath2)" stroke="none" xml:space="preserve">80</text>
<text x="552" font-size="11" y="350" clip-path="url(#clipPath2)" stroke="none" xml:space="preserve">80</text>
<line clip-path="url(#clipPath2)" fill="none" x1="569" x2="569" y1="20" y2="22"/>
<line clip-path="url(#clipPath2)" fill="none" x1="569" x2="569" y1="336" y2="334"/>
<line clip-path="url(#clipPath2)" fill="none" x1="582" x2="582" y1="20" y2="22"/>
<line clip-path="url(#clipPath2)" fill="none" x1="582" x2="582" y1="336" y2="334"/>
<line clip-path="url(#clipPath2)" fill="none" x1="596" x2="596" y1="20" y2="22"/>
<line clip-path="url(#clipPath2)" fill="none" x1="596" x2="596" y1="336" y2="334"/>
<line clip-path="url(#clipPath2)" fill="none" x1="609" x2="609" y1="20" y2="22"/>
<line clip-path="url(#clipPath2)" fill="none" x1="609" x2="609" y1="336" y2="334"/>
<line clip-path="url(#clipPath2)" fill="none" x1="622" x2="622" y1="18" y2="22"/>
<line clip-path="url(#clipPath2)" fill="none" x1="622" x2="622" y1="338" y2="334"/>
<text x="618" font-size="11" y="14" clip-path="url(#clipPath2)" stroke="none" xml:space="preserve">85</text>
<text x="618" font-size="11" y="350" clip-path="url(#clipPath2)" stroke="none" xml:space="preserve">85</text>
<line clip-path="url(#clipPath2)" fill="none" x1="635" x2="635" y1="20" y2="22"/>
<line clip-path="url(#clipPath2)" fill="none" x1="635" x2="635" y1="336" y2="334"/>
<line clip-path="url(#clipPath2)" fill="none" x1="648" x2="648" y1="20" y2="22"/>
<line clip-path="url(#clipPath2)" fill="none" x1="648" x2="648" y1="336" y2="334"/>
<line clip-path="url(#clipPath2)" fill="none" x1="661" x2="661" y1="20" y2="22"/>
<line clip-path="url(#clipPath2)" fill="none" x1="661" x2="661" y1="336" y2="334"/>
<line clip-path="url(#clipPath2)" fill="none" x1="675" x2="675" y1="20" y2="22"/>
<line clip-path="url(#clipPath2)" fill="none" x1="675" x2="675" y1="336" y2="334"/>
<line clip-path="url(#clipPath2)" fill="none" x1="688" x2="688" y1="18" y2="22"/>
<line clip-path="url(#clipPath2)" fill="none" x1="688" x2="688" y1="338" y2="334"/>
<text x="684" font-size="11" y="14" clip-path="url(#clipPath2)" stroke="none" xml:space="preserve">90</text>
<text x="684" font-size="11" y="350" clip-path="url(#clipPath2)" stroke="none" xml:space="preserve">90</text>
<line clip-path="url(#clipPath2)" fill="none" x1="701" x2="701" y1="20" y2="22"/>
<line clip-path="url(#clipPath2)" fill="none" x1="701" x2="701" y1="336" y2="334"/>
<line clip-path="url(#clipPath2)" fill="none" x1="714" x2="714" y1="20" y2="22"/>
<line clip-path="url(#clipPath2)" fill="none" x1="714" x2="714" y1="336" y2="334"/>
<line clip-path="url(#clipPath2)" fill="none" x1="727" x2="727" y1="20" y2="22"/>
<line clip-path="url(#clipPath2)" fill="none" x1="727" x2="727" y1="336" y2="334"/>
<line clip-path="url(#clipPath2)" fill="none" x1="741" x2="741" y1="20" y2="22"/>
<line clip-path="url(#clipPath2)" fill="none" x1="741" x2="741" y1="336" y2="334"/>
<line clip-path="url(#clipPath2)" fill="none" x1="754" x2="754" y1="18" y2="22"/>
<line clip-path="url(#clipPath2)" fill="none" x1="754" x2="754" y1="338" y2="334"/>
<text x="750" font-size="11" y="14" clip-path="url(#clipPath2)" stroke="none" xml:space="preserve">95</text>
<text x="750" font-size="11" y="350" clip-path="url(#clipPath2)" stroke="none" xml:space="preserve">95</text>
<line clip-path="url(#clipPath2)" fill="none" x1="767" x2="767" y1="20" y2="22"/>
<line clip-path="url(#clipPath2)" fill="none" x1="767" x2="767" y1="336" y2="334"/>
<line clip-path="url(#clipPath2)" fill="none" x1="780" x2="780" y1="20" y2="22"/>
<line clip-path="url(#clipPath2)" fill="none" x1="780" x2="780" y1="336" y2="334"/>
<line clip-path="url(#clipPath2)" fill="none" x1="793" x2="793" y1="20" y2="22"/>
<line clip-path="url(#clipPath2)" fill="none" x1="793" x2="793" y1="336" y2="334"/>
<line clip-path="url(#clipPath2)" fill="none" x1="807" x2="807" y1="20" y2="22"/>
<line clip-path="url(#clipPath2)" fill="none" x1="807" x2="807" y1="336" y2="334"/>
<line clip-path="url(#clipPath2)" fill="none" x1="820" x2="820" y1="18" y2="22"/>
<line clip-path="url(#clipPath2)" fill="none" x1="820" x2="820" y1="338" y2="334"/>
<text x="814" font-size="11" y="14" clip-path="url(#clipPath2)" stroke="none" xml:space="preserve">100</text>
<text x="814" font-size="11" y="350" clip-path="url(#clipPath2)" stroke="none" xml:space="preserve">100</text>
<line clip-path="url(#clipPath2)" fill="none" x1="833" x2="833" y1="20" y2="22"/>
<line clip-path="url(#clipPath2)" fill="none" x1="833" x2="833" y1="336" y2="334"/>
<line clip-path="url(#clipPath2)" fill="none" x1="846" x2="846" y1="20" y2="22"/>
<line clip-path="url(#clipPath2)" fill="none" x1="846" x2="846" y1="336" y2="334"/>
<line clip-path="url(#clipPath2)" fill="none" x1="859" x2="859" y1="20" y2="22"/>
<line clip-path="url(#clipPath2)" fill="none" x1="859" x2="859" y1="336" y2="334"/>
<line clip-path="url(#clipPath2)" fill="none" x1="872" x2="872" y1="20" y2="22"/>
<line clip-path="url(#clipPath2)" fill="none" x1="872" x2="872" y1="336" y2="334"/>
<line clip-path="url(#clipPath2)" fill="none" x1="886" x2="886" y1="18" y2="22"/>
<line clip-path="url(#clipPath2)" fill="none" x1="886" x2="886" y1="338" y2="334"/>
<text x="880" font-size="11" y="14" clip-path="url(#clipPath2)" stroke="none" xml:space="preserve">105</text>
<text x="880" font-size="11" y="350" clip-path="url(#clipPath2)" stroke="none" xml:space="preserve">105</text>
<line clip-path="url(#clipPath2)" fill="none" x1="899" x2="899" y1="20" y2="22"/>
<line clip-path="url(#clipPath2)" fill="none" x1="899" x2="899" y1="336" y2="334"/>
<line clip-path="url(#clipPath2)" fill="none" x1="912" x2="912" y1="20" y2="22"/>
<line clip-path="url(#clipPath2)" fill="none" x1="912" x2="912" y1="336" y2="334"/>
<line clip-path="url(#clipPath2)" fill="none" x1="925" x2="925" y1="20" y2="22"/>
<line clip-path="url(#clipPath2)" fill="none" x1="925" x2="925" y1="336" y2="334"/>
<line clip-path="url(#clipPath2)" fill="none" x1="938" x2="938" y1="20" y2="22"/>
<line clip-path="url(#clipPath2)" fill="none" x1="938" x2="938" y1="336" y2="334"/>
<line clip-path="url(#clipPath2)" fill="none" x1="952" x2="952" y1="18" y2="22"/>
<line clip-path="url(#clipPath2)" fill="none" x1="952" x2="952" y1="338" y2="334"/>
<text x="946" font-size="11" y="14" clip-path="url(#clipPath2)" stroke="none" xml:space="preserve">110</text>
<text x="946" font-size="11" y="350" clip-path="url(#clipPath2)" stroke="none" xml:space="preserve">110</text>
<line clip-path="url(#clipPath2)" fill="none" x1="965" x2="965" y1="20" y2="22"/>
<line clip-path="url(#clipPath2)" fill="none" x1="965" x2="965" y1="336" y2="334"/>
<line clip-path="url(#clipPath2)" fill="none" x1="978" x2="978" y1="20" y2="22"/>
<line clip-path="url(#clipPath2)" fill="none" x1="978" x2="978" y1="336" y2="334"/>
<line clip-path="url(#clipPath2)" fill="none" x1="991" x2="991" y1="20" y2="22"/>
<line clip-path="url(#clipPath2)" fill="none" x1="991" x2="991" y1="336" y2="334"/>
<line clip-path="url(#clipPath2)" fill="none" x1="1004" x2="1004" y1="20" y2="22"/>
<line clip-path="url(#clipPath2)" fill="none" x1="1004" x2="1004" y1="336" y2="334"/>
<line clip-path="url(#clipPath2)" fill="none" x1="1018" x2="1018" y1="18" y2="22"/>
<line clip-path="url(#clipPath2)" fill="none" x1="1018" x2="1018" y1="338" y2="334"/>
<text x="1012" font-size="11" y="14" clip-path="url(#clipPath2)" stroke="none" xml:space="preserve">115</text>
<text x="1012" font-size="11" y="350" clip-path="url(#clipPath2)" stroke="none" xml:space="preserve">115</text>
<line clip-path="url(#clipPath2)" fill="none" x1="27" x2="27" y1="24" y2="332"/>
<line clip-path="url(#clipPath2)" fill="none" x1="1020" x2="1020" y1="24" y2="332"/>
<line clip-path="url(#clipPath2)" fill="none" x1="23" x2="27" y1="332" y2="332"/>
<line clip-path="url(#clipPath2)" fill="none" x1="1024" x2="1020" y1="332" y2="332"/>
<text x="17" font-size="11" y="336" clip-path="url(#clipPath2)" stroke="none" xml:space="preserve">0</text>
<text x="1027" font-size="11" y="336" clip-path="url(#clipPath2)" stroke="none" xml:space="preserve">0</text>
<line clip-path="url(#clipPath2)" fill="none" x1="25" x2="27" y1="301" y2="301"/>
<line clip-path="url(#clipPath2)" fill="none" x1="1022" x2="1020" y1="301" y2="301"/>
<line clip-path="url(#clipPath2)" fill="none" x1="23" x2="27" y1="270" y2="270"/>
<line clip-path="url(#clipPath2)" fill="none" x1="1024" x2="1020" y1="270" y2="270"/>
<text x="7" font-size="11" y="274" clip-path="url(#clipPath2)" stroke="none" xml:space="preserve">0.2</text>
<text x="1027" font-size="11" y="274" clip-path="url(#clipPath2)" stroke="none" xml:space="preserve">0.2</text>
<line clip-path="url(#clipPath2)" fill="none" x1="25" x2="27" y1="239" y2="239"/>
<line clip-path="url(#clipPath2)" fill="none" x1="1022" x2="1020" y1="239" y2="239"/>
<line clip-path="url(#clipPath2)" fill="none" x1="23" x2="27" y1="208" y2="208"/>
<line clip-path="url(#clipPath2)" fill="none" x1="1024" x2="1020" y1="208" y2="208"/>
<text x="7" font-size="11" y="212" clip-path="url(#clipPath2)" stroke="none" xml:space="preserve">0.4</text>
<text x="1027" font-size="11" y="212" clip-path="url(#clipPath2)" stroke="none" xml:space="preserve">0.4</text>
<line clip-path="url(#clipPath2)" fill="none" x1="25" x2="27" y1="178" y2="178"/>
<line clip-path="url(#clipPath2)" fill="none" x1="1022" x2="1020" y1="178" y2="178"/>
<line clip-path="url(#clipPath2)" fill="none" x1="23" x2="27" y1="147" y2="147"/>
<line clip-path="url(#clipPath2)" fill="none" x1="1024" x2="1020" y1="147" y2="147"/>
<text x="7" font-size="11" y="151" clip-path="url(#clipPath2)" stroke="none" xml:space="preserve">0.6</text>
<text x="1027" font-size="11" y="151" clip-path="url(#clipPath2)" stroke="none" xml:space="preserve">0.6</text>
<line clip-path="url(#clipPath2)" fill="none" x1="25" x2="27" y1="116" y2="116"/>
<line clip-path="url(#clipPath2)" fill="none" x1="1022" x2="1020" y1="116" y2="116"/>
<line clip-path="url(#clipPath2)" fill="none" x1="23" x2="27" y1="85" y2="85"/>
<line clip-path="url(#clipPath2)" fill="none" x1="1024" x2="1020" y1="85" y2="85"/>
<text x="7" font-size="11" y="89" clip-path="url(#clipPath2)" stroke="none" xml:space="preserve">0.8</text>
<text x="1027" font-size="11" y="89" clip-path="url(#clipPath2)" stroke="none" xml:space="preserve">0.8</text>
<line clip-path="url(#clipPath2)" fill="none" x1="25" x2="27" y1="54" y2="54"/>
<line clip-path="url(#clipPath2)" fill="none" x1="1022" x2="1020" y1="54" y2="54"/>
</g>
</g>
</svg>
